<?xml version="1.0" encoding="utf-8"?>
<!-- Generator: Adobe Illustrator 16.0.2, SVG Export Plug-In . SVG Version: 6.00 Build 0)  -->
<!DOCTYPE svg PUBLIC "-//W3C//DTD SVG 1.1//EN" "http://www.w3.org/Graphics/SVG/1.1/DTD/svg11.dtd">
<svg version="1.1" id="Layer_1" xmlns="http://www.w3.org/2000/svg" xmlns:xlink="http://www.w3.org/1999/xlink" x="0px" y="0px"
	 width="309px" height="257px" viewBox="152.5 256.5 309 257" enable-background="new 152.5 256.5 309 257" xml:space="preserve">
<g>
	<path d="M457,476c-3.664,5.26-2.499,11.907-5.057,17.526c-1.36,2.986-2.045,6.279-3.087,9.421c-0.436,1.303-1.21,2.649-2.574,2.836
		c-5.122,0.687-10.394,1.033-15.38-0.074c-3.041-0.675-2.367-4.211-1.447-6.446c4.594-11.167,7.746-22.716,10.923-34.358
		c3.825-14.022,5.458-28.058,4.185-42.287c-1.051-11.723-5.384-22.713-10.628-33.319c-11.723-23.709-29.006-42.468-50.489-57.56
		c-1.313-0.92-2.995-1.306-4.646-1.997c-1.163,1.45-0.535,2.938-0.529,4.327c0.039,11.152,1.067,22.412-0.136,33.428
		c-1.279,11.731-4.229,23.206-9.354,34.234c-6.187,13.311-14.366,24.813-24.962,34.729c-13.647,12.771-29.661,22.047-46.778,29.011
		c-9.72,3.954-19.923,7.036-29.868,10.547c-11.324,3.998-22.843,7.485-34.236,11.146c-8.36,2.686-17.168,4.767-25.673,7.244
		c-8.304,2.42-16.608,5.25-24.955,7.428c-8.194,2.139-16.401,5.78-25.308,4.169v-21c11.148-3.815,22.781-5.785,34.099-8.957
		c9.048-2.536,18.024-5.368,27.153-7.568c9.097-2.189,17.812-5.626,27.03-7.499c5.724-1.16,11.514-2.706,17.006-5.112
		c3.575-1.567,7.61-2.105,11.407-3.071c10.896-2.772,21.172-7.266,31.86-10.55c28.062-8.621,47.015-27.271,59.5-53.276
		c4.976-10.357,5.783-21.644,7.695-32.668c1.73-9.965,2.318-20.063,2.113-30.199c-0.086-4.244,2.587-3.667,5.024-2.325
		c9.771,5.369,19.273,11.183,28.168,17.931c13.551,10.279,24.787,22.716,33.854,37.06c5.84,9.239,10.765,18.945,12.663,29.896
		c0.344,1.979,0.978,3.851,2.42,5.344C457,434.667,457,455.333,457,476L457,476z"/>
	<path d="M308.049,505.122c-3.66,0-7.32,0.009-10.981-0.005c-1.135-0.005-2.535,0.279-3.001-1.118
		c-0.494-1.479,0.906-1.892,1.844-2.526c8.646-5.854,17.281-11.721,25.924-17.579c0.549-0.372,1.248-0.603,1.666-1.083
		c7.927-9.116,18.452-9.299,29.245-8.521c1.236,0.089,2.93-0.354,3.386,1.317c0.383,1.401-1.205,1.885-2.006,2.578
		c-9.262,8.054-18.677,15.928-27.857,24.065c-4.95,4.393-10.758,2.247-16.223,2.8c-0.658,0.066-1.33,0.009-1.996,0.009
		L308.049,505.122L308.049,505.122z M358.846,464.755c-3.085-0.446-8.002,1.813-9.102-0.993c-0.984-2.509,3.98-4.432,6.244-6.676
		c4.106-4.077,8.588-7.771,12.354-12.206c3.711-4.368,8.854-3.476,13.484-2.824c3.383,0.479,1.914,3.489,0.762,5.104
		c-2.685,3.765-5.942,7.119-8.615,10.893C370.233,463.341,365.78,466.609,358.846,464.755z M386.459,434.021
		c-1.73,0-2.893,0.045-4.051-0.012c-2.645-0.121-3.191-1.262-1.708-3.479c3.112-4.658,6.153-9.362,9.265-14.022
		c2.051-3.074,5.296-3.078,7.998-1.908c2.99,1.294,1.188,4.193,0.418,6.104c-1.534,3.81-3.597,7.408-5.445,11.092
		C391.356,434.94,388.416,433.85,386.459,434.021z M399.859,407.847c-3.527,0.254-4.835-1.004-4.052-4.4
		c0.599-2.58,1.273-5.095,2.328-7.525c1.105-2.555,3.022-2.726,5.309-2.067c2.396,0.691,2.269,2.39,1.797,4.334
		c-0.504,2.076-0.938,4.186-1.22,6.303C403.662,407.184,402.174,408.201,399.859,407.847L399.859,407.847z M399.375,381.224
		c0.134-2.272-0.42-5.224,2.766-4.858c3.761,0.431,3.195,4.031,3.443,6.667c0.189,2.02-0.186,4.371-2.938,4.099
		C398.872,386.758,399.639,383.512,399.375,381.224z M389.668,345.271c1.572,0.001,6.713,6.649,6.376,8.22
		c-0.335,1.563-1.464,1.512-2.672,1.39c-2.523-0.255-6.117-6.188-5.108-8.479C388.527,345.804,388.873,345.242,389.668,345.271z
		 M397.284,359.048c2.282,0.2,5.988,8.156,4.696,9.78c-0.425,0.529-1.487,0.892-2.187,0.795c-2.331-0.324-5.035-8.2-3.496-10.021
		C396.571,359.283,397.074,359.161,397.284,359.048L397.284,359.048z"/>
	<path fill="none" d="M326.051,342.378c-0.209,14.923-6.161,25.654-16.936,33.086c-11.402,7.865-26.291,3.462-35.323-8.684
		c-9.914-13.33-10.066-32.68-0.168-46.081c5.75-7.786,14.055-12.169,23.848-12.126c9.489,0.042,22.973,11.294,25.778,20.66
		C324.674,333.989,326.784,338.639,326.051,342.378z"/>
</g>
<path fill="#FC0202" d="M349.444,377.656c-4.932-5.866-9.979-11.633-14.814-17.575c-3.021-3.713-2.118-7.764,2.231-8.434
	c4.988-0.769,9.221-3.586,14.271-4.17c3.415-0.394,6.665-2.215,11.177-3.82c-8.281-2.606-15.306-4.986-22.43-7.007
	c-7.699-2.185-8.688-4.95-3.566-10.969c4.215-4.946,8.445-9.875,12.591-14.878c0.987-1.194,3.271-2.396,2.104-4.022
	c-1.215-1.696-3.405-0.315-5.091,0.189c-5.839,1.749-11.565,3.972-17.496,5.291c-5.693,1.268-7.012-0.18-5.945-5.952
	c1.023-5.528,2.451-10.994,3.959-16.415c0.971-3.478,1.563-6.894,1.415-10.381c-1.913-0.283-2.265,0.925-2.85,1.593
	c-4.911,5.61-9.713,11.314-14.609,16.936c-2.868,3.293-5.051,2.84-6.867-1.108c-1.35-2.935-1.503-6.131-2.374-9.137
	c-1.811-6.249-1.613-13.082-5.551-20.049c-2.252,9.703-4.22,18.059-6.118,26.431c-0.496,2.188,0.093,4.831-2.9,5.771
	c-3.138,0.986-4.524-1.332-6.128-3.198c-5.266-6.131-10.505-12.286-15.722-18.392c-1.732,1.157-1.287,2.415-0.975,3.453
	c2.291,7.62,3.863,15.399,5.51,23.175c1.523,7.191,0.523,8.503-6.599,7.19c-1.666-0.307-3.117-1.233-4.653-1.615
	c-5.638-1.402-10.802-4.868-17.193-4.515c0.527,2.357,1.928,3.567,3.074,4.91c4.414,5.171,8.916,10.268,13.3,15.464
	c3.7,4.386,3.326,6.802-1.95,9.047c-4.389,1.869-9.114,2.939-13.667,4.435c-3.604,1.185-7.171,2.479-11.963,4.145
	c9.348,2.695,17.243,4.997,25.154,7.242c4.673,1.326,5.947,4.536,3.152,8.496c-1.236,1.753-2.804,3.269-4.193,4.917
	c-4.537,5.382-9.061,10.774-13.584,16.157c1.424,1.183,2.448,0.928,3.351,0.555c6.892-2.842,14.085-4.721,21.199-6.871
	c1.532-0.463,2.524-1.215,3.882,0.198c1.344,1.399,2.258,2.662,1.692,4.819c-2.228,8.482-4.331,16.998-6.387,25.524
	c-0.318,1.32-1.176,2.886,0.84,4.407c5.375-6.31,10.673-12.657,16.146-18.852c1.318-1.491,2.405-3.928,5.164-3.125
	c2.756,0.801,2.859,3.165,3.367,5.525c1.821,8.469,3.902,16.881,6.086,26.172c2.179-3.287,2.883-6.018,3.542-8.95
	c1.487-6.611,2.276-13.397,4.816-19.78c1.478-3.713,3.605-3.34,6.065-1.332c1.137,0.929,1.953,2.246,2.926,3.379
	c4.67,5.443,9.343,10.884,14.803,17.244c0.424-5.027-0.344-8.454-1.266-11.973c-1.593-6.078-3.129-12.211-4.027-18.417
	c-0.662-4.565,1.119-5.7,5.445-4.568c6.55,1.715,13.09,3.439,19.32,6.182c1.233,0.544,3.061,1.597,4.049-0.104
	C351.959,379.515,350.252,378.617,349.444,377.656L349.444,377.656z M326.051,342.378c-0.209,14.923-6.161,25.654-16.936,33.086
	c-11.402,7.865-26.29,3.462-35.323-8.684c-9.914-13.33-10.066-32.68-0.168-46.081c5.75-7.786,14.055-12.169,23.848-12.126
	c9.489,0.042,22.973,11.294,25.778,20.66C324.674,333.989,326.784,338.639,326.051,342.378z"/>
<g>
	<path fill="#24AD69" d="M228.85,425.227l10.991,18.479c0.962,1.586,2.504,2.18,4.624,1.785l11.197-2.088
		c3.249-0.605,5.086,0.231,5.511,2.514c0.292,1.566-0.056,2.9-1.042,4.002c-0.986,1.103-2.505,1.844-4.556,2.228l-11.475,2.139
		c-3.041,0.566-5.262,0.547-6.663-0.063c-1.401-0.609-2.857-2.155-4.369-4.639l-13.771-23.039l-3.875,18.926
		c-0.738,3.713-2.386,5.81-4.943,6.285c-1.061,0.197-2.035,0.021-2.924-0.527c-0.889-0.55-1.422-1.297-1.598-2.241
		c-0.143-0.761-0.109-1.672,0.098-2.735l0.228-1.08l4.862-23.794c0.732-3.617,0.979-6.07,0.738-7.361
		c-0.211-1.128-0.882-2.012-2.014-2.646c-1.132-0.634-2.354-0.83-3.668-0.586c-2.35,0.438-4.279,1.816-5.79,4.137
		c-1.512,2.321-2.039,4.703-1.583,7.146c0.498,2.673,2.283,4.259,5.357,4.758c1.866,0.297,2.944,1.217,3.231,2.76
		c0.241,1.291-0.062,2.449-0.907,3.479c-0.845,1.027-2.017,1.681-3.514,1.96c-2.881,0.536-5.574-0.226-8.079-2.284
		c-2.507-2.061-4.075-4.784-4.706-8.171c-0.941-5.046,0.121-9.804,3.186-14.272c3.065-4.47,7.132-7.177,12.201-8.122
		c3.778-0.704,7.141-0.187,10.088,1.553c2.947,1.74,4.729,4.269,5.348,7.587c0.438,2.35,0.333,5.11-0.315,8.283l-0.661,3.163
		l14.607-22.355c1.575-2.415,3.17-3.774,4.783-4.075c1.105-0.206,2.095-0.016,2.968,0.574c0.872,0.588,1.412,1.436,1.618,2.541
		c0.253,1.358-0.37,3.191-1.872,5.498L228.85,425.227z"/>
</g>
</svg>
